<svg xmlns="http://www.w3.org/2000/svg" width="42" height="48" viewBox="0 0 42 48">
    <g fill="none">
        <path fill="#364FDE" d="M12.407 29.78c-3.223-15.934-.17-26.39-.17-26.39s-.816 6.365 5.604 16.624c-.081 12.717 2.422 19.351 2.422 19.351l.514-.378-.514.448s-3.807-3.108-7.856-9.656zM27.583 27.523c1.54 1.552 2.978 2.626 4.016 3.137l-.018-.01s1.166.419 1.372.14c1.421-1.505 1.769-4.31.821-9.581-5.419-3.095-6.103-7.918-6.103-7.918s-.976 6.697-.088 14.232z"/>
        <path fill="#56D8FF" d="M12.237 3.39S7.78 18.66 15.324 40.412c.206.627 0 1.325-.549 1.743L6.818 47.73c-.754.558-1.852.21-2.195-.697C2.497 41.248-3.333 22.075 2.566 1.09 2.84.253 3.732-.235 4.555.114l7.682 3.277z"/>
        <path fill="#667DFF" d="M27.465 34.067l-7.202 5.298s-3.841-10.179-1.852-29.49c.137-1.116 1.303-1.674 2.263-1.116l6.997 4.532s-1.372 9.412.617 18.475c.206.906-.137 1.813-.823 2.3zM40.772 22.284l-6.653-4.392c-.412-.279-1.03.14-.892.627 1.578 7.042 1.372 10.528-.274 12.27-.206.28-1.372-.139-1.372-.139 1.097.558 1.372.28 1.372.28 1.097-.837 5.213-3.835 7.82-5.648 1.028-.767 1.028-2.3 0-2.998z"/>
    </g>
</svg>
